HIERARCHY
ROOT Hips
{
	OFFSET 0.000000 0.000000 0.000000
	CHANNELS 6 Xposition Yposition Zposition Zrotation Xrotation Yrotation
	JOINT Spine
	{
		OFFSET 0.000000 -1.053067 -0.000000
		CHANNELS 6 Xposition Yposition Zposition Zrotation Xrotation Yrotation
		JOINT Spine1
		{
			OFFSET 0.000000 -2.382877 -0.000001
			CHANNELS 6 Xposition Yposition Zposition Zrotation Xrotation Yrotation
			JOINT Neck
			{
				OFFSET 0.000000 -2.639722 -0.000001
				CHANNELS 6 Xposition Yposition Zposition Zrotation Xrotation Yrotation
				JOINT Head
				{
					OFFSET 0.000000 -1.990555 -0.256846
					CHANNELS 6 Xposition Yposition Zposition Zrotation Xrotation Yrotation
					End Site
					{
						OFFSET 0.000000 -2.568457 -0.000001
					}
				}
			}
			JOINT LeftShoulder
			{
				OFFSET 0.512620 -2.153831 0.056020
				CHANNELS 6 Xposition Yposition Zposition Zrotation Xrotation Yrotation
				JOINT LeftArm
				{
					OFFSET 1.485729 0.000000 0.000000
					CHANNELS 6 Xposition Yposition Zposition Zrotation Xrotation Yrotation
					JOINT LeftForeArm
					{
						OFFSET 3.852898 0.000000 0.000000
						CHANNELS 6 Xposition Yposition Zposition Zrotation Xrotation Yrotation
						JOINT LeftHand
						{
							OFFSET 3.445927 0.000000 0.000000
							CHANNELS 6 Xposition Yposition Zposition Zrotation Xrotation Yrotation
							End Site
							{
								OFFSET 1.926343 0.000000 0.000000
							}
						}
					}
				}
			}
			JOINT RightShoulder
			{
				OFFSET -0.513668 -2.153831 0.056020
				CHANNELS 6 Xposition Yposition Zposition Zrotation Xrotation Yrotation
				JOINT RightArm
				{
					OFFSET -1.485729 0.000000 0.000000
					CHANNELS 6 Xposition Yposition Zposition Zrotation Xrotation Yrotation
					JOINT RightForeArm
					{
						OFFSET -3.852898 0.000000 0.000000
						CHANNELS 6 Xposition Yposition Zposition Zrotation Xrotation Yrotation
						JOINT RightHand
						{
							OFFSET -3.445927 0.000000 0.000000
							CHANNELS 6 Xposition Yposition Zposition Zrotation Xrotation Yrotation
							End Site
							{
								OFFSET -1.926343 0.000000 0.000000
							}
						}
					}
				}
			}
		}
	}
	JOINT LeftUpLeg
	{
		OFFSET 1.284228 0.000000 0.000000
		CHANNELS 6 Xposition Yposition Zposition Zrotation Xrotation Yrotation
		JOINT LeftLeg
		{
			OFFSET 0.000000 6.684024 0.000002
			CHANNELS 6 Xposition Yposition Zposition Zrotation Xrotation Yrotation
			JOINT LeftFoot
			{
				OFFSET 0.000000 5.369457 0.000002
				CHANNELS 6 Xposition Yposition Zposition Zrotation Xrotation Yrotation
				JOINT LeftToeBase
				{
					OFFSET 0.000000 0.834749 -1.926342
					CHANNELS 6 Xposition Yposition Zposition Zrotation Xrotation Yrotation
					End Site
					{
						OFFSET 0.000000 0.000000 -0.513691
					}
				}
			}
		}
	}
	JOINT RightUpLeg
	{
		OFFSET -1.284228 0.000000 0.000000
		CHANNELS 6 Xposition Yposition Zposition Zrotation Xrotation Yrotation
		JOINT RightLeg
		{
			OFFSET 0.000000 6.684024 0.000002
			CHANNELS 6 Xposition Yposition Zposition Zrotation Xrotation Yrotation
			JOINT RightFoot
			{
				OFFSET 0.000000 5.369457 0.000002
				CHANNELS 6 Xposition Yposition Zposition Zrotation Xrotation Yrotation
				JOINT RightToeBase
				{
					OFFSET 0.000000 0.834749 -1.926342
					CHANNELS 6 Xposition Yposition Zposition Zrotation Xrotation Yrotation
					End Site
					{
						OFFSET 0.000000 0.000000 -0.513691
					}
				}
			}
		}
	}
}
MOTION
Frames: 8
Frame Time: 0.041667
-0.565405 -11.932114 1.058784 9.362446 3.772106 -86.394305 -0.000000 -1.053068 -0.000001 0.799455 -8.308858 6.586909 -0.000000 -2.382875 -0.000001 -13.287672 0.194487 2.183458 0.000001 -2.639723 -0.000001 13.544590 23.526952 22.900275 -0.000000 -1.990553 -0.256848 -37.365038 -5.655229 30.775845 0.512620 -2.153830 0.056020 -15.783995 -2.113453 9.888510 1.485727 -0.000002 0.000000 10.084209 16.000645 -1.475512 3.852897 0.000000 -0.000001 -16.126833 -25.376048 -7.377689 3.445929 0.000001 -0.000001 41.611708 -19.576027 19.077171 -0.513667 -2.153831 0.056020 5.767209 8.319224 5.699626 -1.485729 -0.000000 0.000000 -32.147375 27.010140 -4.481600 -3.852897 -0.000001 -0.000002 15.806863 -12.804591 -62.291551 -3.445926 -0.000002 -0.000000 -5.478149 -3.071699 -4.308745 1.284228 -0.000001 -0.000000 -7.642065 -16.940109 3.619545 -0.000000 6.684023 0.000002 11.843732 28.183623 -17.513138 -0.000000 5.369457 0.000002 0.420403 -13.015904 -18.558102 -0.000001 0.834749 -1.926343 -0.000003 -0.000002 0.000006 -1.284228 -0.000001 -0.000000 9.204301 -21.890215 -3.860444 -0.000000 6.684024 0.000002 -7.011942 37.241176 2.142199 0.000000 5.369458 0.000002 -4.816210 -20.717313 0.318727 -0.000000 0.834750 -1.926343 -0.000000 0.000001 0.000000 
-0.565673 -11.946294 1.100468 9.350327 3.748854 -86.159080 -0.000000 -1.053066 -0.000001 0.719999 -8.377107 6.567858 -0.000000 -2.382877 -0.000001 -13.044874 0.137790 2.171909 -0.000000 -2.639724 -0.000000 13.584351 23.661782 22.857544 -0.000001 -1.990557 -0.256846 -37.260133 -6.141601 30.590867 0.512620 -2.153832 0.056020 -15.844092 -2.074347 9.945191 1.485728 -0.000002 0.000000 10.089454 15.851049 -1.533164 3.852901 -0.000002 0.000001 -16.095431 -25.346110 -7.315717 3.445927 0.000000 0.000000 41.714889 -19.517453 19.072588 -0.513667 -2.153833 0.056020 6.001671 8.160544 5.664354 -1.485729 0.000002 -0.000000 -31.860479 26.670784 -4.236370 -3.852898 -0.000000 -0.000001 15.859088 -14.928832 -63.419816 -3.445930 -0.000001 0.000000 -8.638141 -4.836176 -4.976122 1.284228 -0.000000 -0.000000 -7.374180 -16.428642 3.473514 -0.000001 6.684022 0.000002 11.464260 27.182370 -17.339137 -0.000000 5.369458 0.000002 0.257309 -12.966719 -18.792142 -0.000000 0.834749 -1.926343 -0.000001 0.000000 0.000003 -1.284228 0.000001 -0.000000 9.297193 -21.797391 -4.020948 -0.000000 6.684024 0.000002 -6.870066 36.858132 2.153498 0.000000 5.369459 0.000003 -5.172520 -20.282646 0.055299 0.000000 0.834749 -1.926343 0.000000 0.000001 0.000000 
-0.567124 -11.959994 1.143173 9.335588 3.725772 -85.953102 -0.000000 -1.053068 -0.000000 0.627648 -8.412776 6.563764 0.000000 -2.382879 -0.000001 -12.771972 0.041026 2.161478 0.000000 -2.639721 -0.000001 13.607504 23.790406 22.840264 -0.000000 -1.990554 -0.256850 -37.137975 -6.595048 30.435671 0.512620 -2.153831 0.056020 -15.932234 -2.042466 10.002228 1.485727 -0.000001 -0.000000 10.180873 16.048312 -1.519743 3.852897 -0.000001 0.000001 -16.275238 -25.463633 -7.513747 3.445927 0.000004 -0.000000 41.834506 -19.615448 19.181946 -0.513668 -2.153831 0.056020 6.285290 7.911895 5.524523 -1.485729 -0.000002 0.000000 -31.654034 25.972774 -3.803124 -3.852897 -0.000002 -0.000001 15.525942 -16.638378 -64.802970 -3.445929 -0.000000 0.000001 -11.384783 -6.394461 -5.350902 1.284228 -0.000000 0.000000 -7.075103 -15.963675 3.308749 -0.000000 6.684023 0.000002 11.111501 26.194482 -17.580898 -0.000001 5.369458 0.000002 -0.139123 -12.844913 -18.752935 0.000000 0.834749 -1.926343 0.000000 -0.000001 0.000003 -1.284229 -0.000001 0.000000 9.368557 -21.707425 -4.172005 -0.000000 6.684023 0.000002 -6.639102 36.491235 2.216981 -0.000000 5.369459 0.000003 -5.587919 -19.841976 -0.296135 -0.000000 0.834750 -1.926342 -0.000000 0.000001 -0.000000 
-0.569232 -11.974534 1.186779 9.321734 3.716494 -85.728027 -0.000000 -1.053066 0.000000 0.553116 -8.391127 6.548353 0.000000 -2.382877 -0.000001 -12.533666 -0.156077 2.136418 0.000000 -2.639720 -0.000001 13.685022 23.952478 22.791646 -0.000000 -1.990557 -0.256846 -37.026490 -7.025694 30.280565 0.512621 -2.153828 0.056020 -15.993434 -1.928582 10.029322 1.485728 -0.000001 0.000001 10.094344 15.517399 -1.536045 3.852898 -0.000003 -0.000001 -16.022114 -25.284052 -7.244923 3.445929 -0.000002 -0.000000 41.708496 -19.466999 18.999672 -0.513668 -2.153828 0.056020 6.627370 7.802092 5.451140 -1.485730 -0.000000 -0.000000 -31.364010 25.138361 -3.585344 -3.852899 0.000001 -0.000002 15.102559 -18.232176 -66.180251 -3.445929 -0.000002 -0.000001 -13.876918 -7.900991 -5.761507 1.284229 0.000002 0.000000 -6.783537 -15.529306 3.147229 -0.000000 6.684022 0.000002 10.844744 25.311026 -17.939077 -0.000001 5.369456 0.000001 -0.573240 -12.714535 -18.600161 0.000001 0.834749 -1.926343 0.000001 0.000001 0.000002 -1.284228 0.000002 0.000000 9.451992 -21.619459 -4.432766 0.000000 6.684026 0.000002 -6.484939 36.097027 2.284154 0.000000 5.369459 0.000003 -5.946722 -19.397879 -0.503337 -0.000000 0.834750 -1.926343 -0.000000 -0.000000 0.000000 
-0.572007 -11.988187 1.231682 9.299266 3.710041 -85.540592 -0.000000 -1.053067 -0.000000 0.454507 -8.407317 6.538659 0.000000 -2.382878 -0.000001 -12.208557 -0.271921 2.123592 -0.000000 -2.639726 -0.000001 13.700647 24.109724 22.757618 0.000001 -1.990554 -0.256846 -36.968194 -7.509965 30.104557 0.512620 -2.153833 0.056020 -16.098356 -1.888813 10.083553 1.485726 -0.000002 -0.000000 10.072064 15.407066 -1.522966 3.852898 0.000001 0.000002 -15.972706 -25.306881 -7.217624 3.445929 -0.000002 -0.000001 41.744866 -19.483270 18.984403 -0.513668 -2.153832 0.056020 6.878404 7.508218 5.242628 -1.485729 0.000001 -0.000000 -31.158889 24.701787 -3.160110 -3.852899 -0.000001 -0.000002 15.185971 -20.175382 -67.193700 -3.445928 0.000001 -0.000002 -16.474097 -9.465987 -6.387356 1.284228 -0.000000 -0.000000 -6.463677 -15.152508 3.010022 -0.000001 6.684022 0.000002 10.505348 24.537747 -17.971712 -0.000000 5.369457 0.000001 -0.998307 -12.507829 -18.632713 -0.000000 0.834749 -1.926342 -0.000000 0.000002 -0.000003 -1.284228 0.000000 -0.000000 9.556265 -21.514094 -4.642297 0.000000 6.684023 0.000002 -6.320603 35.694200 2.273040 0.000000 5.369459 0.000002 -6.280798 -18.974419 -0.631845 -0.000000 0.834749 -1.926342 -0.000000 0.000002 -0.000000 
-0.574404 -12.002951 1.276018 9.269796 3.678413 -85.393607 0.000000 -1.053067 0.000000 0.352408 -8.430956 6.550949 0.000000 -2.382874 -0.000001 -11.896734 -0.361685 2.121458 -0.000001 -2.639724 -0.000000 13.695439 24.261786 22.760523 -0.000000 -1.990557 -0.256846 -36.900220 -8.007375 29.952999 0.512620 -2.153832 0.056021 -16.222620 -1.825428 10.146835 1.485730 0.000000 0.000000 10.072184 15.347814 -1.472247 3.852899 -0.000002 0.000001 -15.969816 -25.342966 -7.286456 3.445927 -0.000000 -0.000000 41.778027 -19.508970 19.024469 -0.513668 -2.153831 0.056021 7.150881 7.167122 5.030816 -1.485729 0.000001 0.000000 -31.016398 24.546646 -2.796874 -3.852897 -0.000001 0.000000 15.838997 -22.379158 -67.720486 -3.445927 0.000002 -0.000001 -19.254715 -10.947325 -7.260269 1.284228 0.000001 0.000000 -6.172089 -14.838241 2.822834 -0.000001 6.684024 0.000002 10.131653 23.947355 -17.807756 -0.000001 5.369458 0.000002 -1.222000 -12.323197 -18.687787 0.000000 0.834749 -1.926343 -0.000001 -0.000003 0.000008 -1.284229 0.000002 0.000000 9.627636 -21.396886 -4.840409 0.000000 6.684025 0.000002 -6.129840 35.308458 2.333805 0.000000 5.369458 0.000002 -6.577053 -18.509029 -0.807933 -0.000000 0.834750 -1.926342 -0.000000 0.000002 -0.000000 
-0.578347 -12.016462 1.321102 9.245718 3.642974 -85.261231 -0.000000 -1.053066 -0.000000 0.236157 -8.429471 6.558531 -0.000000 -2.382877 -0.000001 -11.571782 -0.493986 2.114382 -0.000000 -2.639722 -0.000001 13.713569 24.422282 22.769984 0.000000 -1.990554 -0.256845 -36.865465 -8.469263 29.830499 0.512620 -2.153829 0.056020 -16.333118 -1.747520 10.204881 1.485728 0.000001 0.000001 10.017034 15.170031 -1.402004 3.852900 -0.000001 0.000001 -15.906807 -25.333629 -7.287015 3.445930 -0.000001 0.000000 41.790509 -19.509361 18.980877 -0.513668 -2.153829 0.056020 7.435013 7.020917 4.946613 -1.485730 0.000004 0.000000 -30.800198 24.042327 -2.714270 -3.852898 0.000001 -0.000001 16.509780 -24.400989 -68.147133 -3.445929 -0.000001 0.000000 -21.971795 -12.213773 -8.172840 1.284228 0.000001 0.000000 -5.906616 -14.599094 2.539410 0.000000 6.684022 0.000003 9.719568 23.466189 -17.435520 -0.000000 5.369460 0.000002 -1.223972 -12.166366 -18.732052 -0.000000 0.834749 -1.926343 -0.000001 0.000001 0.000001 -1.284229 0.000002 0.000000 9.699607 -21.288738 -5.062937 0.000000 6.684024 0.000002 -5.966739 34.922860 2.566497 -0.000000 5.369456 0.000002 -6.913170 -18.041941 -1.091472 0.000000 0.834749 -1.926343 -0.000000 0.000001 -0.000000 
-0.582627 -12.030269 1.366283 9.223057 3.619671 -85.148546 0.000000 -1.053068 -0.000000 0.236413 -8.475405 6.563410 0.000000 -2.382878 -0.000001 -11.403727 -0.525989 2.113468 0.000000 -2.639723 -0.000001 13.718401 24.493412 22.826745 0.000001 -1.990555 -0.256848 -36.755078 -8.909559 29.744302 0.512620 -2.153831 0.056020 -16.386128 -1.749488 10.322959 1.485726 0.000001 0.000000 10.038627 15.385353 -1.321592 3.852899 -0.000004 -0.000000 -16.025726 -25.441987 -7.527035 3.445929 0.000000 -0.000000 41.934199 -19.583827 19.119737 -0.513667 -2.153831 0.056020 7.755195 6.798790 4.859707 -1.485728 -0.000001 0.000000 -30.598339 23.977715 -2.756680 -3.852896 0.000000 -0.000001 17.806233 -26.947461 -67.843313 -3.445928 0.000000 -0.000001 -25.124540 -13.652026 -9.415806 1.284228 0.000000 0.000000 -5.648046 -14.421195 2.310330 -0.000001 6.684023 0.000003 9.381398 23.146418 -17.070562 -0.000000 5.369459 0.000001 -1.021119 -12.049525 -18.734548 0.000001 0.834749 -1.926343 -0.000002 -0.000000 0.000003 -1.284229 -0.000000 0.000000 9.795302 -21.156523 -5.310466 -0.000000 6.684024 0.000003 -5.826376 34.501044 2.665688 0.000000 5.369458 0.000002 -7.001002 -17.681541 -1.173698 -0.000000 0.834749 -1.926342 0.000000 0.000002 -0.000000 
